<svg width="64" height="64" viewBox="0 0 64 64" fill="none" xmlns="http://www.w3.org/2000/svg">
  <rect width="64" height="64" rx="18" fill="#14091C"/>
  <rect x="1" y="1" width="62" height="62" rx="17" stroke="url(#ring)" stroke-opacity="0.32"/>
  <path d="M22.6 16.8c-6.1 0-11.1 4.8-11.1 10.8 0 3.2 1.4 6.1 3.8 8.1-1.5 2.1-2 4.7-1.3 7.1 1 3.7 4.4 6.4 8.4 6.4 2.5 0 4.9-1 6.6-2.7 1.6 1.7 4 2.7 6.5 2.7 4 0 7.5-2.7 8.5-6.4.7-2.4.2-5-1.3-7.1 2.4-2 3.8-4.9 3.8-8.1 0-6-5-10.8-11.1-10.8-1.4 0-2.8.2-4 .8-1.3-.6-2.7-.8-4-.8Z" fill="url(#fill)" stroke="url(#stroke)" stroke-width="2.2" stroke-linecap="round" stroke-linejoin="round"/>
  <path d="M32 17.6v28.6" stroke="url(#stroke)" stroke-width="1.9" stroke-linecap="round"/>
  <path d="M22.6 23.4c3.8.1 7 2.7 7.9 6.4" stroke="url(#stroke)" stroke-width="1.7" stroke-linecap="round"/>
  <path d="M20.7 33.8c4 .2 7.2 3 7.8 6.8" stroke="url(#stroke)" stroke-width="1.7" stroke-linecap="round"/>
  <path d="M41.4 23.4c-3.8.1-7 2.7-7.9 6.4" stroke="url(#stroke)" stroke-width="1.7" stroke-linecap="round"/>
  <path d="M43.3 33.8c-4 .2-7.2 3-7.8 6.8" stroke="url(#stroke)" stroke-width="1.7" stroke-linecap="round"/>
  <circle cx="18.5" cy="27.5" r="1.8" fill="#7CF6FF"/>
  <circle cx="45.5" cy="27.5" r="1.8" fill="#F0A8FF"/>
  <circle cx="22.2" cy="45.8" r="1.8" fill="#F0A8FF"/>
  <circle cx="41.8" cy="45.8" r="1.8" fill="#7CF6FF"/>
  <defs>
    <linearGradient id="stroke" x1="9" y1="9" x2="54" y2="54" gradientUnits="userSpaceOnUse">
      <stop stop-color="#F5BEFF"/>
      <stop offset="0.45" stop-color="#C56FFF"/>
      <stop offset="1" stop-color="#58E6FF"/>
    </linearGradient>
    <radialGradient id="fill" cx="0" cy="0" r="1" gradientUnits="userSpaceOnUse" gradientTransform="translate(32 30) rotate(90) scale(26 24)">
      <stop stop-color="#6A2DAA" stop-opacity="0.72"/>
      <stop offset="1" stop-color="#15081E" stop-opacity="0.15"/>
    </radialGradient>
    <linearGradient id="ring" x1="7" y1="5" x2="57" y2="60" gradientUnits="userSpaceOnUse">
      <stop stop-color="#F5BEFF"/>
      <stop offset="1" stop-color="#58E6FF"/>
    </linearGradient>
  </defs>
</svg>
